<svg width="899" height="72" viewBox="0 0 899 72" fill="none" xmlns="http://www.w3.org/2000/svg">
<g clip-path="url(#clip0_35_2)">
<path d="M30.8938 15.9406C32.3518 16.4552 34.6865 18.0371 35.3631 18.9614C35.506 19.1615 35.7633 19.5046 35.9348 19.7333C36.3065 20.2288 37.2404 22.5254 37.5453 23.7071C37.6692 24.174 37.8598 24.8125 37.9646 25.1079C38.1457 25.6034 38.1552 25.6987 38.0408 26.2514C37.7454 27.6332 36.8211 28.5861 35.1153 29.2723C33.2857 29.9965 31.5608 29.8821 30.7604 28.9673C30.4078 28.5671 30.303 28.1668 30.303 27.252C30.303 26.6326 30.322 26.585 30.6174 26.3181C30.8271 26.1275 31.0272 26.0418 31.2559 26.0418C31.6942 26.0418 32.4852 26.2038 33.0665 26.423C34.5054 26.9566 35.3535 27.0138 35.8681 26.6421C36.0111 26.5278 36.1826 26.2514 36.2874 25.937C36.4494 25.47 36.4494 25.3271 36.3446 24.4218C35.973 21.096 34.0099 18.4183 31.113 17.2747C29.0451 16.4552 25.929 16.8364 23.3941 18.1991C22.3268 18.7708 21.9838 19.0186 20.9641 19.9144C19.0964 21.5725 17.9719 23.3354 17.1238 25.9465C16.4567 28.0334 16.2852 29.9679 16.5806 32.1406C16.9237 34.6754 17.5526 35.838 20.8212 40.05C23.8515 43.9475 25.4239 45.6819 27.4918 47.4067C30.4554 49.8653 33.0665 51.552 34.4768 51.9141C35.2582 52.1238 36.3351 52.0666 37.4024 51.7712C39.232 51.2566 47.1986 48.5884 49.8859 47.5783C56.1086 45.234 58.7959 44.0524 66.3718 40.2883C71.1365 37.9154 75.3771 35.981 77.0924 35.3806C83.5819 33.1031 89.29 32.3693 96.58 32.8553C99.1815 33.0268 100.316 33.1888 102.393 33.6653C104.508 34.1513 105.7 34.3324 106.767 34.3324C107.729 34.3324 108.139 34.2085 108.092 33.9226C108.072 33.7892 107.844 33.6558 107.205 33.4271C106.729 33.2555 106.005 32.9601 105.585 32.7791C103.003 31.6546 101.821 31.2639 99.4388 30.7112C93.3495 29.2913 88.3561 28.7767 82.7624 28.9864C75.4914 29.2532 68.9161 30.473 61.3021 32.9601C59.5201 33.5319 57.1759 34.523 53.1831 36.3717C52.0967 36.8767 50.1432 37.7153 48.8472 38.2299C47.5607 38.754 46.1599 39.3353 45.7406 39.5259C44.8353 39.9357 41.967 40.9553 40.528 41.3746C37.8979 42.1465 35.6013 42.3943 33.6287 42.1465C33.1046 42.0798 32.2755 42.0131 31.7705 42.0035C30.2362 41.9559 29.1404 41.651 27.8634 40.8981C26.596 40.1644 25.3953 38.7254 25.3953 37.944C25.3953 37.4294 25.5764 37.2579 26.091 37.2579C26.8057 37.277 27.7681 37.7915 29.2071 38.9541C30.6651 40.1358 32.1802 40.7171 34.5912 41.0411C35.506 41.165 37.4024 40.9077 39.4702 40.374C41.986 39.7355 44.4255 38.8207 49.4094 36.6671C50.2194 36.3145 51.5726 35.7523 52.4112 35.4092C53.2498 35.0661 54.8126 34.3895 55.8894 33.9035C58.8721 32.5504 59.806 32.1692 61.4641 31.607C66.2193 29.987 72.1942 28.7386 78.2835 28.0811C80.2942 27.8619 88.4038 27.8238 90.243 28.0239C90.8719 28.0906 91.9678 28.2145 92.673 28.2907C93.3781 28.367 94.3882 28.5099 94.9124 28.6147C95.4365 28.71 96.075 28.8244 96.3418 28.8625C97.1899 28.9768 102.879 30.4063 104.223 30.8446C104.947 31.0828 106.376 31.6737 107.463 32.1883C110.283 33.5319 110.969 33.7511 112.704 33.8464C114.009 33.9131 114.152 33.9417 114.724 34.2275C115.62 34.6659 116.22 35.3615 116.859 36.7147C117.545 38.1632 117.869 38.5539 118.726 38.9541C119.384 39.2495 120.375 40.0405 121.766 41.3555C122.49 42.0417 122.548 42.1655 122.348 42.5467C122.262 42.7183 122.138 42.8898 122.081 42.9279C121.842 43.0899 121.376 42.9946 120.966 42.6992C120.213 42.156 117.916 40.8219 117.373 40.6218C116.935 40.4598 116.801 40.4407 116.582 40.536C116.43 40.5932 116.287 40.7266 116.249 40.8314C116.134 41.1935 115.601 41.6891 114.972 42.0035C113.695 42.6515 110.445 42.8421 109.407 42.3371C108.844 42.0703 108.682 41.8225 108.616 41.165C108.568 40.679 108.578 40.6313 108.816 40.4788C109.064 40.3168 109.092 40.3168 109.854 40.5741C110.283 40.7266 110.826 40.9267 111.065 41.0315C111.818 41.3555 112.332 41.4794 112.932 41.4794C113.399 41.4794 113.59 41.4318 113.876 41.2317C114.066 41.0983 114.419 40.9077 114.648 40.7933C115.077 40.5932 115.544 40.1358 115.544 39.9071C115.544 39.5831 114.61 39.0304 113.638 38.7731C113.295 38.6778 112.542 38.3824 111.97 38.0965C110.074 37.1721 108.597 36.5241 107.701 36.2287C106.405 35.7999 105.995 35.8475 104.48 36.5908C103.832 36.9148 102.803 37.5247 102.202 37.9631C100.249 39.3639 99.0481 40.1072 96.904 41.2221C91.882 43.8523 89.4615 45.0053 79.3318 49.608C76.654 50.8183 67.3438 53.82 64.0371 54.5252C63.5129 54.6396 62.7411 54.8206 62.3218 54.9254C61.1401 55.2304 57.3379 55.8593 55.6988 56.0213C54.8888 56.0976 52.9544 56.1833 51.4106 56.2214C45.712 56.3263 41.4524 55.764 38.3362 54.4871C37.7454 54.2393 36.783 53.8963 36.2112 53.7057L35.163 53.3817L34.0385 53.4865C33.4191 53.5437 32.409 53.7152 31.7895 53.8772C29.7312 54.3823 25.3762 54.6396 21.9647 54.449C16.3233 54.1345 11.6825 52.8385 7.74684 50.4752C6.38413 49.6557 5.17389 48.7123 3.66825 47.2733C3.01072 46.6539 2.26742 45.9392 2.01966 45.701C1.48601 45.1959 1.27636 44.8243 0.904718 43.6712C0.399659 42.1179 0.437777 40.4598 1.00954 39.6593C1.29542 39.2495 1.98154 38.9732 2.53425 39.0208C3.14413 39.0875 3.44907 39.2972 3.59201 39.7737C3.68731 40.1263 3.66825 40.3454 3.40142 41.7081C2.91542 44.1477 2.9726 44.4812 4.00178 45.7677C5.16437 47.1971 7.37519 48.8076 10.3865 50.418C14.5985 52.6574 18.6771 53.4579 24.7282 53.2101C26.8533 53.1244 32.895 52.6003 32.9998 52.4859C33.0188 52.4668 32.8568 52.3525 32.6281 52.2381C31.3702 51.5997 27.2821 48.8933 25.9575 47.826C24.8998 46.9779 22.222 44.3001 21.231 43.0994C20.907 42.7087 20.3638 42.0417 20.0112 41.6224C18.7438 40.0786 17.1428 37.4771 16.3519 35.657C15.5705 33.8559 15.256 32.2931 15.2655 30.2824C15.2751 28.6528 15.399 27.7475 15.7897 26.3848C16.4662 23.9834 17.5812 21.8965 19.0678 20.1812C21.5359 17.3605 23.9659 16.1217 27.5394 15.8548C29.4453 15.7119 30.303 15.731 30.8938 15.9406ZM89.6235 33.9607C88.947 33.9798 86.8886 34.1608 86.2882 34.2466C85.4306 34.3705 81.7999 35.2377 80.4753 35.6379C76.8541 36.7243 73.414 38.0298 71.3271 39.1257C70.6219 39.4878 68.9257 40.3931 67.5629 41.1268C66.2002 41.8606 64.3515 42.804 63.4653 43.2233C60.0252 44.8243 55.5559 46.835 54.2027 47.3781C53.4308 47.6926 52.1634 48.2072 51.382 48.5217C50.6101 48.8361 49.5428 49.2078 48.9997 49.3507C48.466 49.4841 46.2457 50.1703 44.073 50.8659C41.9002 51.5711 39.4893 52.3048 38.7079 52.4954C37.936 52.686 37.3071 52.8766 37.3071 52.9243C37.3071 52.9624 37.5453 53.0481 37.8407 53.1053C38.1266 53.1625 38.889 53.3817 39.5274 53.5913C41.6239 54.2679 43.9109 54.6396 47.4082 54.8778C49.4285 55.0207 50.0479 55.0207 52.03 54.9254C58.3099 54.6014 60.6446 54.287 64.6088 53.1911C71.7654 51.209 74.4527 50.3513 76.0441 49.5508C76.4158 49.3698 77.1209 49.0934 77.6165 48.9314C79.6367 48.3025 81.9905 47.2352 88.7182 43.9094C95.5318 40.5455 98.8194 38.7921 99.5627 38.1537C99.9058 37.8583 100.354 37.5628 100.573 37.5057C100.916 37.4008 104.032 35.676 104.242 35.4759C104.28 35.4378 104.07 35.3425 103.765 35.2853C103.451 35.2186 102.574 34.9994 101.793 34.7993C98.6765 33.9798 97.4281 33.8559 92.9588 33.9131C91.3102 33.9321 89.8046 33.9512 89.6235 33.9607ZM108.749 35.1043C108.53 35.171 108.32 35.2472 108.273 35.2853C108.234 35.3234 108.616 35.4664 109.13 35.6188C109.645 35.7618 110.56 36.1144 111.16 36.3907C111.76 36.6575 112.637 37.0483 113.114 37.2388C113.58 37.439 114.333 37.782 114.781 38.0012C115.715 38.4681 116.077 38.6015 115.982 38.4395C115.858 38.2394 114.362 37.2579 113.018 36.4955C112.704 36.3145 111.97 35.8857 111.398 35.5331L110.35 34.8946L109.75 34.9423C109.426 34.9708 108.978 35.0471 108.749 35.1043ZM113.876 35.4759C114.19 35.6855 114.591 35.9619 114.772 36.0953C115.22 36.4193 115.362 36.3907 115.019 36.0572C114.676 35.7141 113.657 35.0947 113.457 35.0947C113.371 35.0947 113.561 35.2663 113.876 35.4759Z" fill="#441306"/>
</g>
<g filter="url(#filter0_dd_35_2)">
<path d="M146.533 60.08C139.285 60.08 133.909 58.088 130.405 54.104C126.901 50.072 125.149 44 125.149 35.888C125.149 27.68 126.853 21.536 130.261 17.456C133.717 13.376 139.141 11.336 146.533 11.336C153.877 11.336 159.253 13.376 162.661 17.456C166.117 21.536 167.845 27.68 167.845 35.888C167.845 44 166.093 50.072 162.589 54.104C159.085 58.088 153.733 60.08 146.533 60.08ZM146.533 54.752C151.237 54.752 154.717 53.288 156.973 50.36C159.229 47.432 160.357 42.608 160.357 35.888C160.357 29.024 159.229 24.104 156.973 21.128C154.765 18.152 151.285 16.664 146.533 16.664C141.733 16.664 138.205 18.152 135.949 21.128C133.741 24.104 132.637 29.024 132.637 35.888C132.637 42.608 133.765 47.432 136.021 50.36C138.277 53.288 141.781 54.752 146.533 54.752ZM176.61 53.744H178.554C179.61 53.744 180.33 53.528 180.714 53.096C181.146 52.664 181.362 51.992 181.362 51.08V20.336C181.362 19.424 181.146 18.776 180.714 18.392C180.33 17.96 179.61 17.744 178.554 17.744H176.61V12.416H201.306C206.106 12.416 209.85 13.664 212.538 16.16C215.274 18.608 216.642 22.136 216.642 26.744C216.642 31.352 215.25 35 212.466 37.688C209.73 40.328 205.986 41.648 201.234 41.648H188.994V51.08C188.994 51.992 189.186 52.664 189.57 53.096C190.002 53.528 190.746 53.744 191.802 53.744H193.674V59H176.61V53.744ZM200.226 36.32C203.25 36.32 205.482 35.552 206.922 34.016C208.41 32.432 209.154 30.008 209.154 26.744C209.154 23.432 208.458 21.104 207.066 19.76C205.674 18.416 203.394 17.744 200.226 17.744H188.994V36.32H200.226ZM222.868 53.744H224.956C225.916 53.744 226.588 53.528 226.972 53.096C227.404 52.664 227.62 51.968 227.62 51.008V20.336C227.62 19.424 227.404 18.776 226.972 18.392C226.588 17.96 225.916 17.744 224.956 17.744H222.868V12.416H257.356V21.704H250.444V20.264C250.444 19.352 250.228 18.704 249.796 18.32C249.364 17.888 248.668 17.672 247.708 17.672H235.252V33.008H247.708V38.336H235.252V53.744H247.708C248.668 53.744 249.364 53.552 249.796 53.168C250.228 52.736 250.444 52.04 250.444 51.08V49.64H257.356V59H222.868V53.744ZM266.103 53.672H268.191C269.151 53.672 269.823 53.48 270.207 53.096C270.639 52.664 270.855 51.992 270.855 51.08V20.336C270.855 19.424 270.639 18.776 270.207 18.392C269.823 17.96 269.151 17.744 268.191 17.744H266.103V12.416H276.831L298.791 46.472V20.336C298.791 19.424 298.575 18.776 298.143 18.392C297.711 17.96 297.039 17.744 296.127 17.744H293.967V12.416H311.103V17.744H308.943C308.031 17.744 307.359 17.96 306.927 18.392C306.543 18.776 306.351 19.424 306.351 20.336V59H300.375L278.415 25.016V51.08C278.415 51.992 278.631 52.664 279.063 53.096C279.495 53.48 280.167 53.672 281.079 53.672H283.167V59H266.103V53.672ZM349.056 53.672H351.144C352.104 53.672 352.776 53.48 353.16 53.096C353.592 52.664 353.808 51.992 353.808 51.08V20.336C353.808 19.424 353.592 18.776 353.16 18.392C352.776 17.96 352.104 17.744 351.144 17.744H349.056V12.416H359.784L381.744 46.472V20.336C381.744 19.424 381.528 18.776 381.096 18.392C380.664 17.96 379.992 17.744 379.08 17.744H376.92V12.416H394.056V17.744H391.896C390.984 17.744 390.312 17.96 389.88 18.392C389.496 18.776 389.304 19.424 389.304 20.336V59H383.328L361.368 25.016V51.08C361.368 51.992 361.584 52.664 362.016 53.096C362.448 53.48 363.12 53.672 364.032 53.672H366.12V59H349.056V53.672ZM402.837 53.744H404.925C405.885 53.744 406.557 53.528 406.941 53.096C407.373 52.664 407.589 51.968 407.589 51.008V20.336C407.589 19.424 407.373 18.776 406.941 18.392C406.557 17.96 405.885 17.744 404.925 17.744H402.837V12.416H437.325V21.704H430.413V20.264C430.413 19.352 430.197 18.704 429.765 18.32C429.333 17.888 428.637 17.672 427.677 17.672H415.221V33.008H427.677V38.336H415.221V53.744H427.677C428.637 53.744 429.333 53.552 429.765 53.168C430.197 52.736 430.413 52.04 430.413 51.08V49.64H437.325V59H402.837V53.744ZM450.705 20.696C450.465 19.544 450.057 18.776 449.481 18.392C448.905 17.96 447.921 17.744 446.529 17.744H445.017V12.416H456.105L463.161 45.824L470.937 20.264H476.985L484.833 45.824L491.961 12.416H502.977V17.744H501.393C500.001 17.744 499.017 17.96 498.441 18.392C497.865 18.776 497.457 19.544 497.217 20.696L488.649 59H482.385L473.961 32.504L465.681 59H459.345L450.705 20.696ZM525.853 60.08C522.493 60.08 519.301 59.6 516.277 58.64C513.253 57.68 510.661 56.384 508.501 54.752V47.696H516.205V52.376C517.405 53.096 518.869 53.672 520.597 54.104C522.373 54.536 524.173 54.752 525.997 54.752C528.877 54.752 531.061 54.152 532.549 52.952C534.037 51.704 534.781 49.952 534.781 47.696C534.781 46.112 534.373 44.792 533.557 43.736C532.789 42.68 531.685 41.768 530.245 41C528.805 40.232 526.813 39.344 524.269 38.336C520.717 36.944 517.861 35.624 515.701 34.376C513.541 33.128 511.861 31.664 510.661 29.984C509.509 28.256 508.933 26.168 508.933 23.72C508.933 19.64 510.493 16.568 513.613 14.504C516.733 12.392 520.741 11.336 525.637 11.336C528.853 11.336 531.781 11.792 534.421 12.704C537.109 13.616 539.413 14.816 541.333 16.304V23H533.629V18.536C531.517 17.288 528.733 16.664 525.277 16.664C522.493 16.664 520.309 17.216 518.725 18.32C517.141 19.424 516.349 21.152 516.349 23.504C516.349 25.136 516.853 26.504 517.861 27.608C518.869 28.712 520.021 29.576 521.317 30.2C522.613 30.824 524.629 31.688 527.365 32.792C531.013 34.232 533.821 35.504 535.789 36.608C537.757 37.712 539.317 39.128 540.469 40.856C541.621 42.536 542.197 44.72 542.197 47.408C542.197 49.856 541.549 52.04 540.253 53.96C539.005 55.832 537.157 57.32 534.709 58.424C532.261 59.528 529.309 60.08 525.853 60.08ZM550.962 53.744H552.906C553.962 53.744 554.682 53.528 555.066 53.096C555.498 52.664 555.714 51.992 555.714 51.08V20.336C555.714 19.424 555.498 18.776 555.066 18.392C554.682 17.96 553.962 17.744 552.906 17.744H550.962V12.416H575.658C580.458 12.416 584.202 13.664 586.89 16.16C589.626 18.608 590.994 22.136 590.994 26.744C590.994 31.352 589.602 35 586.818 37.688C584.082 40.328 580.338 41.648 575.586 41.648H563.346V51.08C563.346 51.992 563.538 52.664 563.922 53.096C564.354 53.528 565.098 53.744 566.154 53.744H568.026V59H550.962V53.744ZM574.578 36.32C577.602 36.32 579.834 35.552 581.274 34.016C582.762 32.432 583.506 30.008 583.506 26.744C583.506 23.432 582.81 21.104 581.418 19.76C580.026 18.416 577.746 17.744 574.578 17.744H563.346V36.32H574.578ZM588.571 53.744H590.803C591.907 53.744 592.747 53.552 593.323 53.168C593.947 52.784 594.427 52.112 594.763 51.152L608.515 12.416H615.787L629.395 51.152C629.731 52.112 630.211 52.784 630.835 53.168C631.459 53.552 632.323 53.744 633.427 53.744H635.587V59H619.171V53.744H622.771L619.603 44.528H604.627L601.459 53.744H605.059V59H588.571V53.744ZM618.163 39.992L612.187 22.424L606.067 39.992H618.163ZM644.321 53.744H646.265C647.321 53.744 648.041 53.528 648.425 53.096C648.857 52.664 649.073 51.992 649.073 51.08V20.336C649.073 19.424 648.857 18.776 648.425 18.392C648.041 17.96 647.321 17.744 646.265 17.744H644.321V12.416H669.017C673.817 12.416 677.561 13.664 680.249 16.16C682.985 18.608 684.353 22.136 684.353 26.744C684.353 31.352 682.961 35 680.177 37.688C677.441 40.328 673.697 41.648 668.945 41.648H656.705V51.08C656.705 51.992 656.897 52.664 657.281 53.096C657.713 53.528 658.457 53.744 659.513 53.744H661.385V59H644.321V53.744ZM667.937 36.32C670.961 36.32 673.193 35.552 674.633 34.016C676.121 32.432 676.865 30.008 676.865 26.744C676.865 23.432 676.169 21.104 674.777 19.76C673.385 18.416 671.105 17.744 667.937 17.744H656.705V36.32H667.937ZM690.579 53.744H692.667C693.627 53.744 694.299 53.528 694.683 53.096C695.115 52.664 695.331 51.968 695.331 51.008V20.336C695.331 19.424 695.115 18.776 694.683 18.392C694.299 17.96 693.627 17.744 692.667 17.744H690.579V12.416H725.067V21.704H718.155V20.264C718.155 19.352 717.939 18.704 717.507 18.32C717.075 17.888 716.379 17.672 715.419 17.672H702.963V33.008H715.419V38.336H702.963V53.744H715.419C716.379 53.744 717.075 53.552 717.507 53.168C717.939 52.736 718.155 52.04 718.155 51.08V49.64H725.067V59H690.579V53.744ZM733.813 53.744H735.758C736.814 53.744 737.534 53.528 737.918 53.096C738.35 52.664 738.566 51.992 738.566 51.08V20.336C738.566 19.424 738.35 18.776 737.918 18.392C737.534 17.96 736.814 17.744 735.758 17.744H733.813V12.416H757.358C762.206 12.416 765.974 13.616 768.662 16.016C771.35 18.368 772.694 21.728 772.694 26.096C772.694 29.696 771.71 32.696 769.742 35.096C767.774 37.448 764.99 38.96 761.39 39.632L767.726 51.44C768.206 52.304 768.758 52.904 769.382 53.24C770.054 53.576 770.894 53.744 771.902 53.744H773.846V59H758.078V53.744H761.534L754.334 40.352H746.198V51.224C746.198 52.136 746.366 52.784 746.702 53.168C747.086 53.552 747.758 53.744 748.718 53.744H750.374V59H733.813V53.744ZM756.206 35.024C759.23 35.024 761.486 34.256 762.974 32.72C764.51 31.184 765.278 28.976 765.278 26.096C765.278 23.12 764.558 20.984 763.118 19.688C761.678 18.392 759.374 17.744 756.206 17.744H746.198V35.024H756.206Z" fill="#492D21"/>
</g>
<g clip-path="url(#clip1_35_2)">
<path d="M868.106 15.9406C866.648 16.4552 864.314 18.0371 863.637 18.9614C863.494 19.1615 863.237 19.5046 863.065 19.7333C862.694 20.2288 861.76 22.5254 861.455 23.7071C861.331 24.174 861.14 24.8125 861.035 25.1079C860.854 25.6034 860.845 25.6987 860.959 26.2514C861.255 27.6332 862.179 28.5861 863.885 29.2723C865.714 29.9965 867.439 29.8821 868.24 28.9673C868.592 28.5671 868.697 28.1668 868.697 27.252C868.697 26.6326 868.678 26.585 868.383 26.3181C868.173 26.1275 867.973 26.0418 867.744 26.0418C867.306 26.0418 866.515 26.2038 865.934 26.423C864.495 26.9566 863.646 27.0138 863.132 26.6421C862.989 26.5278 862.817 26.2514 862.713 25.937C862.551 25.47 862.551 25.3271 862.655 24.4218C863.027 21.096 864.99 18.4183 867.887 17.2747C869.955 16.4552 873.071 16.8364 875.606 18.1991C876.673 18.7708 877.016 19.0186 878.036 19.9144C879.904 21.5725 881.028 23.3354 881.876 25.9465C882.543 28.0334 882.715 29.9679 882.419 32.1406C882.076 34.6754 881.447 35.838 878.179 40.05C875.148 43.9475 873.576 45.6819 871.508 47.4067C868.545 49.8653 865.934 51.552 864.523 51.9141C863.742 52.1238 862.665 52.0666 861.598 51.7712C859.768 51.2566 851.801 48.5884 849.114 47.5783C842.891 45.234 840.204 44.0524 832.628 40.2883C827.864 37.9154 823.623 35.981 821.908 35.3806C815.418 33.1031 809.71 32.3693 802.42 32.8553C799.818 33.0268 798.684 33.1888 796.607 33.6653C794.492 34.1513 793.3 34.3324 792.233 34.3324C791.271 34.3324 790.861 34.2085 790.908 33.9226C790.928 33.7892 791.156 33.6558 791.795 33.4271C792.271 33.2555 792.995 32.9601 793.415 32.7791C795.997 31.6546 797.179 31.2639 799.561 30.7112C805.65 29.2913 810.644 28.7767 816.238 28.9864C823.509 29.2532 830.084 30.473 837.698 32.9601C839.48 33.5319 841.824 34.523 845.817 36.3717C846.903 36.8767 848.857 37.7153 850.153 38.2299C851.439 38.754 852.84 39.3353 853.259 39.5259C854.165 39.9357 857.033 40.9553 858.472 41.3746C861.102 42.1465 863.399 42.3943 865.371 42.1465C865.895 42.0798 866.724 42.0131 867.23 42.0035C868.764 41.9559 869.86 41.651 871.137 40.8981C872.404 40.1644 873.605 38.7254 873.605 37.944C873.605 37.4294 873.424 37.2579 872.909 37.2579C872.194 37.277 871.232 37.7915 869.793 38.9541C868.335 40.1358 866.82 40.7171 864.409 41.0411C863.494 41.165 861.598 40.9077 859.53 40.374C857.014 39.7355 854.574 38.8207 849.591 36.6671C848.781 36.3145 847.427 35.7523 846.589 35.4092C845.75 35.0661 844.187 34.3895 843.111 33.9035C840.128 32.5504 839.194 32.1692 837.536 31.607C832.781 29.987 826.806 28.7386 820.716 28.0811C818.706 27.8619 810.596 27.8238 808.757 28.0239C808.128 28.0906 807.032 28.2145 806.327 28.2907C805.622 28.367 804.612 28.5099 804.088 28.6147C803.564 28.71 802.925 28.8244 802.658 28.8625C801.81 28.9768 796.121 30.4063 794.777 30.8446C794.053 31.0828 792.624 31.6737 791.537 32.1883C788.717 33.5319 788.031 33.7511 786.296 33.8464C784.991 33.9131 784.848 33.9417 784.276 34.2275C783.38 34.6659 782.78 35.3615 782.141 36.7147C781.455 38.1632 781.131 38.5539 780.274 38.9541C779.616 39.2495 778.625 40.0405 777.234 41.3555C776.51 42.0417 776.452 42.1655 776.652 42.5467C776.738 42.7183 776.862 42.8898 776.919 42.9279C777.158 43.0899 777.624 42.9946 778.034 42.6992C778.787 42.156 781.084 40.8219 781.627 40.6218C782.065 40.4598 782.199 40.4407 782.418 40.536C782.57 40.5932 782.713 40.7266 782.751 40.8314C782.866 41.1935 783.399 41.6891 784.028 42.0035C785.305 42.6515 788.555 42.8421 789.593 42.3371C790.156 42.0703 790.318 41.8225 790.384 41.165C790.432 40.679 790.422 40.6313 790.184 40.4788C789.936 40.3168 789.908 40.3168 789.146 40.5741C788.717 40.7266 788.174 40.9267 787.935 41.0315C787.182 41.3555 786.668 41.4794 786.068 41.4794C785.601 41.4794 785.41 41.4318 785.124 41.2317C784.934 41.0983 784.581 40.9077 784.352 40.7933C783.923 40.5932 783.456 40.1358 783.456 39.9071C783.456 39.5831 784.39 39.0304 785.362 38.7731C785.705 38.6778 786.458 38.3824 787.03 38.0965C788.926 37.1721 790.403 36.5241 791.299 36.2287C792.595 35.7999 793.005 35.8475 794.52 36.5908C795.168 36.9148 796.197 37.5247 796.798 37.9631C798.751 39.3639 799.952 40.1072 802.096 41.2221C807.118 43.8523 809.538 45.0053 819.668 49.608C822.346 50.8183 831.656 53.82 834.963 54.5252C835.487 54.6396 836.259 54.8206 836.678 54.9254C837.86 55.2304 841.662 55.8593 843.301 56.0213C844.111 56.0976 846.046 56.1833 847.589 56.2214C853.288 56.3263 857.548 55.764 860.664 54.4871C861.255 54.2393 862.217 53.8963 862.789 53.7057L863.837 53.3817L864.962 53.4865C865.581 53.5437 866.591 53.7152 867.21 53.8772C869.269 54.3823 873.624 54.6396 877.035 54.449C882.677 54.1345 887.318 52.8385 891.253 50.4752C892.616 49.6557 893.826 48.7123 895.332 47.2733C895.989 46.6539 896.733 45.9392 896.98 45.701C897.514 45.1959 897.724 44.8243 898.095 43.6712C898.6 42.1179 898.562 40.4598 897.99 39.6593C897.705 39.2495 897.018 38.9732 896.466 39.0208C895.856 39.0875 895.551 39.2972 895.408 39.7737C895.313 40.1263 895.332 40.3454 895.599 41.7081C896.085 44.1477 896.027 44.4812 894.998 45.7677C893.836 47.1971 891.625 48.8076 888.614 50.418C884.402 52.6574 880.323 53.4579 874.272 53.2101C872.147 53.1244 866.105 52.6003 866 52.4859C865.981 52.4668 866.143 52.3525 866.372 52.2381C867.63 51.5997 871.718 48.8933 873.042 47.826C874.1 46.9779 876.778 44.3001 877.769 43.0994C878.093 42.7087 878.636 42.0417 878.989 41.6224C880.256 40.0786 881.857 37.4771 882.648 35.657C883.43 33.8559 883.744 32.2931 883.734 30.2824C883.725 28.6528 883.601 27.7475 883.21 26.3848C882.534 23.9834 881.419 21.8965 879.932 20.1812C877.464 17.3605 875.034 16.1217 871.461 15.8548C869.555 15.7119 868.697 15.731 868.106 15.9406ZM809.376 33.9607C810.053 33.9798 812.111 34.1608 812.712 34.2466C813.569 34.3705 817.2 35.2377 818.525 35.6379C822.146 36.7243 825.586 38.0298 827.673 39.1257C828.378 39.4878 830.074 40.3931 831.437 41.1268C832.8 41.8606 834.648 42.804 835.535 43.2233C838.975 44.8243 843.444 46.835 844.797 47.3781C845.569 47.6926 846.837 48.2072 847.618 48.5217C848.39 48.8361 849.457 49.2078 850 49.3507C850.534 49.4841 852.754 50.1703 854.927 50.8659C857.1 51.5711 859.511 52.3048 860.292 52.4954C861.064 52.686 861.693 52.8766 861.693 52.9243C861.693 52.9624 861.455 53.0481 861.159 53.1053C860.873 53.1625 860.111 53.3817 859.473 53.5913C857.376 54.2679 855.089 54.6396 851.592 54.8778C849.572 55.0207 848.952 55.0207 846.97 54.9254C840.69 54.6014 838.355 54.287 834.391 53.1911C827.235 51.209 824.547 50.3513 822.956 49.5508C822.584 49.3698 821.879 49.0934 821.384 48.9314C819.363 48.3025 817.01 47.2352 810.282 43.9094C803.468 40.5455 800.181 38.7921 799.437 38.1537C799.094 37.8583 798.646 37.5628 798.427 37.5057C798.084 37.4008 794.968 35.676 794.758 35.4759C794.72 35.4378 794.93 35.3425 795.235 35.2853C795.549 35.2186 796.426 34.9994 797.207 34.7993C800.324 33.9798 801.572 33.8559 806.041 33.9131C807.69 33.9321 809.195 33.9512 809.376 33.9607ZM790.251 35.1043C790.47 35.171 790.68 35.2472 790.727 35.2853C790.766 35.3234 790.384 35.4664 789.87 35.6188C789.355 35.7618 788.44 36.1144 787.84 36.3907C787.24 36.6575 786.363 37.0483 785.886 37.2388C785.42 37.439 784.667 37.782 784.219 38.0012C783.285 38.4681 782.923 38.6015 783.018 38.4395C783.142 38.2394 784.638 37.2579 785.982 36.4955C786.296 36.3145 787.03 35.8857 787.602 35.5331L788.65 34.8946L789.25 34.9423C789.574 34.9708 790.022 35.0471 790.251 35.1043ZM785.124 35.4759C784.81 35.6855 784.409 35.9619 784.228 36.0953C783.78 36.4193 783.638 36.3907 783.981 36.0572C784.324 35.7141 785.343 35.0947 785.543 35.0947C785.629 35.0947 785.439 35.2663 785.124 35.4759Z" fill="#441306"/>
</g>
<defs>
<filter id="filter0_dd_35_2" x="125.149" y="11.336" width="651.196" height="52.244" filterUnits="userSpaceOnUse" color-interpolation-filters="sRGB">
<feFlood flood-opacity="0" result="BackgroundImageFix"/>
<feColorMatrix in="SourceAlpha" type="matrix" values="0 0 0 0 0 0 0 0 0 0 0 0 0 0 0 0 0 0 127 0" result="hardAlpha"/>
<feOffset dx="2.5" dy="3.5"/>
<feComposite in2="hardAlpha" operator="out"/>
<feColorMatrix type="matrix" values="0 0 0 0 0.286275 0 0 0 0 0.176471 0 0 0 0 0.129412 0 0 0 1 0"/>
<feBlend mode="normal" in2="BackgroundImageFix" result="effect1_dropShadow_35_2"/>
<feColorMatrix in="SourceAlpha" type="matrix" values="0 0 0 0 0 0 0 0 0 0 0 0 0 0 0 0 0 0 127 0" result="hardAlpha"/>
<feOffset dx="1.5" dy="2.5"/>
<feComposite in2="hardAlpha" operator="out"/>
<feColorMatrix type="matrix" values="0 0 0 0 0.956863 0 0 0 0 0.866667 0 0 0 0 0.745098 0 0 0 1 0"/>
<feBlend mode="normal" in2="effect1_dropShadow_35_2" result="effect2_dropShadow_35_2"/>
<feBlend mode="normal" in="SourceGraphic" in2="effect2_dropShadow_35_2" result="shape"/>
</filter>
<clipPath id="clip0_35_2">
<rect width="121.976" height="40.5" fill="white" transform="matrix(-1 0 0 1 122.5 15.75)"/>
</clipPath>
<clipPath id="clip1_35_2">
<rect width="121.976" height="40.5" fill="white" transform="translate(776.5 15.75)"/>
</clipPath>
</defs>
</svg>
