<svg width="130" height="130" viewBox="0 0 130 130" fill="none" xmlns="http://www.w3.org/2000/svg">
<path d="M15.7311 83.5473C13.9311 84.2273 11.9711 83.9273 10.2211 82.7073C8.90109 81.7673 7.63112 81.4673 6.43112 81.8073C5.16112 82.1673 4.1811 83.2673 3.7911 84.7573C3.7111 85.0773 3.51111 85.3273 3.24111 85.4173C3.15111 85.4573 3.06109 85.4673 2.97109 85.4673C2.77109 85.4673 2.58111 85.4073 2.39111 85.2673C1.87111 84.9173 1.60111 84.1073 1.80111 83.4773C2.49111 81.2373 3.90109 79.7473 5.78109 79.2873C7.55109 78.8573 9.4711 79.3573 11.2011 80.6973C11.7411 81.1273 12.3811 81.4173 13.0511 81.5273C13.6911 81.6273 14.3311 81.5873 14.9511 81.3773C15.5511 81.1773 16.0911 80.8473 16.5511 80.3873C16.9811 79.9573 17.3511 79.4273 17.6811 78.7573C18.5011 77.0073 19.9811 75.7973 21.8511 75.3473C23.5911 74.9273 25.4311 75.1473 27.0211 75.9773C27.5111 76.2473 28.1111 76.3973 28.7611 76.4173C29.3811 76.4373 30.0011 76.3373 30.6411 76.1273C31.2411 75.9273 31.8111 75.6373 32.3111 75.2673C32.7811 74.9173 33.1911 74.5173 33.5711 74.0173C34.5211 72.7673 36.0211 71.8573 37.9111 71.3973C39.5711 70.9973 41.3611 70.9473 42.8211 71.2673C43.1711 71.3473 43.2511 71.5673 43.2711 71.6673C43.3011 71.8073 43.2911 72.0173 43.0711 72.2273C42.7611 72.5273 42.2311 72.6873 41.8111 72.6073C40.6611 72.3973 39.4711 72.4473 38.2711 72.7873C36.9411 73.1673 35.8411 73.8573 35.2511 74.6973C34.3311 76.0273 32.8611 77.1373 31.2311 77.7573C29.4111 78.4373 27.6011 78.4073 26.0011 77.6573C24.7811 77.0773 23.5511 76.9573 22.3511 77.2973C21.0511 77.6673 20.0211 78.5473 19.5311 79.7173C18.7811 81.5473 17.4311 82.9073 15.7311 83.5473Z" fill="#492D21"/>
<path d="M12.9311 26.4773C12.7011 26.3073 12.5711 26.0273 12.5811 25.6973C12.6011 25.0673 13.0911 24.3873 13.6911 24.1773C15.8511 23.4473 17.9311 23.7773 19.3911 25.0873C20.7411 26.2873 21.3911 28.0473 21.3211 30.3273C21.2911 31.7873 21.8611 33.0273 22.9111 33.8173C23.9211 34.5773 25.2311 34.8473 26.5911 34.5673C28.4311 34.2173 30.3211 34.7573 31.7711 36.0573C33.0811 37.2273 33.9211 38.8173 34.1911 40.6773C34.3711 41.8773 35.0511 42.9473 36.1311 43.7573C37.1411 44.5073 38.3711 44.9473 39.5111 44.9573C41.0311 44.9873 42.6811 45.7173 44.1511 47.0373C45.4111 48.1573 46.4111 49.5273 47.0411 51.0073C47.1711 51.3173 47.0811 51.5073 47.0211 51.5973C46.9311 51.7273 46.7711 51.7973 46.5911 51.7973C46.5311 51.7973 46.4711 51.7973 46.4111 51.7773C45.9911 51.6973 45.5511 51.3373 45.3811 50.9573C44.9411 49.9473 44.1411 48.8973 43.1811 48.0973C42.1311 47.2273 41.0011 46.7573 39.9411 46.7473C38.2911 46.7273 36.5311 46.1373 35.1011 45.1473C33.5011 44.0373 32.5211 42.5373 32.2511 40.8173C32.0611 39.5473 31.3911 38.3573 30.4311 37.5573C29.4011 36.7073 28.1711 36.3973 26.8811 36.6573C24.9211 37.0573 23.0211 36.7073 21.5411 35.6673C19.9611 34.5673 19.1011 32.7973 19.1411 30.6873C19.1711 29.1273 18.6511 27.8273 17.6811 27.0273C16.6711 26.1873 15.3011 26.0273 13.8011 26.5573C13.4911 26.6773 13.1611 26.6473 12.9311 26.4773Z" fill="#492D21"/>
<path d="M42.0311 66.2873C42.2611 66.3973 42.3911 66.5673 42.4011 66.7573C42.4011 66.8773 42.3611 67.1073 42.0411 67.2873C41.6511 67.5073 41.0911 67.5473 40.7211 67.3673C39.7611 66.9073 38.4911 66.6773 37.2411 66.7373C35.8711 66.7973 34.7011 67.2073 33.8611 67.9273C33.1911 68.4873 32.5211 68.9173 31.7911 69.2573C30.9811 69.6373 30.1211 69.8773 29.2411 69.9973C28.8911 70.0373 28.5411 70.0673 28.2011 70.0673C27.6311 70.0673 27.0711 69.9973 26.5411 69.8773C25.6211 69.6573 24.8111 69.2573 24.1811 68.7073C23.9911 68.5473 23.8711 68.3073 23.8711 68.0473C23.8611 67.7873 23.9711 67.5373 24.1611 67.3473C24.5411 66.9873 25.1711 66.9673 25.5811 67.3073C26.4811 68.0773 27.6711 68.4173 29.0211 68.2773C30.2711 68.1573 31.5011 67.6473 32.3911 66.8873C33.5711 65.8673 35.2211 65.3073 37.1711 65.2873C38.8811 65.2773 40.6511 65.6373 42.0311 66.2873Z" fill="#492D21"/>
<path d="M40.2911 77.8573C41.7911 77.0473 43.5311 76.5373 45.0811 76.4473C45.4211 76.4373 45.5611 76.5973 45.6211 76.6873C45.6511 76.7473 45.6811 76.8273 45.6811 76.9273C45.6811 77.0373 45.6511 77.1673 45.5511 77.3273C45.3211 77.6973 44.8411 77.9973 44.4311 78.0073C43.3611 78.0573 42.1211 78.4473 41.0411 79.0873C39.8611 79.7773 39.0211 80.6873 38.6211 81.6973C37.9311 83.3673 36.8811 84.7073 35.4811 85.6973C34.2411 86.5673 32.8711 87.0373 31.5811 87.0373C31.1811 87.0373 30.8011 86.9973 30.4211 86.9073C30.1711 86.8573 29.9611 86.6973 29.8311 86.4773C29.7011 86.2473 29.6811 85.9773 29.7611 85.7273C29.9211 85.2273 30.4711 84.9173 30.9911 85.0273C32.1611 85.2773 33.3711 85.0173 34.5011 84.2673C35.5511 83.5773 36.4011 82.5573 36.8311 81.4673C37.3811 80.0273 38.5811 78.7773 40.2911 77.8573Z" fill="#492D21"/>
<path d="M49.0611 47.0273C48.9011 45.9773 48.3711 44.8173 47.6111 43.8173C46.7811 42.7173 45.7712 41.9873 44.6912 41.6973C43.1112 41.3373 41.5811 40.4073 40.3911 39.0973C39.0911 37.6773 38.4411 35.9373 38.5411 34.1973C38.5711 33.9273 38.7011 33.7073 38.9111 33.5573C39.1211 33.3973 39.3911 33.3473 39.6611 33.4073C40.1711 33.5173 40.5511 34.0273 40.5011 34.5473C40.4411 35.1373 40.5111 35.7273 40.7111 36.2973C40.9211 36.8773 41.2411 37.4373 41.6711 37.9373C42.0811 38.4273 42.5611 38.8473 43.0911 39.1773C43.6211 39.5073 44.1911 39.7673 44.7311 39.9073C46.2511 40.3073 47.6411 41.3673 48.7711 42.9473C49.7511 44.3373 50.4612 45.9973 50.7012 47.4973C50.7412 47.7373 50.6712 47.9473 50.5112 48.0573C50.4612 48.0973 50.3611 48.1473 50.2311 48.1473C50.1311 48.1473 50.0111 48.1173 49.8711 48.0473C49.5011 47.8873 49.1411 47.4373 49.0611 47.0273Z" fill="#492D21"/>
<path d="M43.0111 87.0673C42.8211 88.6673 42.0411 90.3373 40.8711 91.6473C39.5811 93.0973 37.9611 93.9073 36.2011 93.9873C34.8511 94.0373 33.7111 94.5073 32.8011 95.3673C31.8211 96.2973 31.3211 97.5573 31.4311 98.8173C31.6111 100.787 31.0511 102.617 29.8411 103.967C28.5611 105.407 26.6911 106.057 24.5711 105.787C22.9711 105.577 21.7111 105.907 20.8111 106.757C19.8511 107.667 19.4911 109.097 19.8311 110.587C19.9111 110.917 19.8511 111.227 19.6611 111.437C19.5011 111.617 19.2611 111.717 19.0011 111.717C18.9411 111.717 18.8911 111.707 18.8411 111.707C18.2111 111.637 17.6011 111.047 17.4811 110.387C17.0511 108.097 17.6111 106.127 19.0611 104.847C20.4311 103.647 22.3611 103.187 24.5011 103.557C25.1911 103.687 25.8911 103.647 26.5311 103.427C27.1511 103.227 27.6911 102.887 28.1411 102.417C28.5811 101.957 28.9011 101.417 29.1011 100.797C29.2811 100.217 29.3611 99.5573 29.3411 98.8273C29.2511 96.9073 30.0011 95.1473 31.4411 93.8773C32.7911 92.6873 34.5211 92.0273 36.3211 92.0273C36.8911 92.0473 37.4911 91.8873 38.0611 91.6073C38.6211 91.3373 39.1311 90.9573 39.5911 90.4773C40.0411 90.0173 40.4011 89.4973 40.6711 88.9373C40.9211 88.4173 41.1011 87.8473 41.2111 87.2473C41.4611 85.6873 42.3611 84.1873 43.8211 82.8973C45.1011 81.7673 46.6711 80.8973 48.1211 80.5073C48.3611 80.4473 48.5711 80.4973 48.7011 80.6473C48.7611 80.7273 48.8311 80.8473 48.8311 81.0173C48.8311 81.0873 48.8211 81.1673 48.7911 81.2473C48.6611 81.6473 48.2511 82.0473 47.8511 82.1673C46.7411 82.4973 45.6811 83.1173 44.7911 83.9673C43.7911 84.9173 43.1411 86.0473 43.0111 87.0673Z" fill="#492D21"/>
<path d="M44.1211 56.4073C44.0311 56.5873 43.8311 56.6873 43.5611 56.6973C43.5411 56.7073 43.5211 56.7073 43.4911 56.7073C43.0911 56.7073 42.6111 56.4873 42.3611 56.1673C41.7311 55.3173 40.7211 54.5273 39.5811 53.9973C38.3311 53.4173 37.1011 53.2373 36.0211 53.4773C34.4711 53.8773 32.6411 53.7673 31.0011 53.1673C29.1711 52.4973 27.8211 51.2973 27.0911 49.6773C26.9911 49.4373 27.0011 49.1773 27.1111 48.9473C27.2311 48.7173 27.4411 48.5373 27.7111 48.4673C28.2111 48.3273 28.7911 48.5973 28.9811 49.0873C29.3811 50.1373 30.3411 51.0373 31.6011 51.5473C32.7511 52.0173 34.0011 52.1273 35.2211 51.8773C36.7511 51.5373 38.4711 51.8173 40.2011 52.7073C41.7211 53.4773 43.1211 54.6173 44.0311 55.8273C44.1811 56.0273 44.2111 56.2373 44.1211 56.4073Z" fill="#492D21"/>
<path d="M58.0211 86.5873C58.0911 87.0073 57.9212 87.5473 57.6212 87.8373C56.7912 88.6673 56.1612 89.6773 55.7612 90.8573C55.3112 92.1673 55.2612 93.4673 55.6212 94.4273C56.1912 95.9373 56.2711 97.7773 55.8511 99.4673C55.3811 101.357 54.3312 102.827 52.8112 103.717C51.6412 104.397 50.8412 105.337 50.4412 106.527C50.0012 107.807 50.1411 109.147 50.8311 110.217C51.9111 111.877 52.2612 113.757 51.8212 115.517C51.3612 117.387 50.0012 118.827 48.0012 119.577C46.4912 120.137 45.5111 121.017 45.1111 122.187C44.6911 123.437 45.0311 124.867 46.0411 126.037C46.2611 126.287 46.3511 126.587 46.2811 126.867C46.2111 127.147 45.9911 127.367 45.6711 127.487C45.5211 127.547 45.3512 127.567 45.1812 127.567C44.6912 127.567 44.1611 127.337 43.8611 126.947C42.4011 125.117 41.9811 123.107 42.6711 121.297C43.3211 119.597 44.8211 118.297 46.9011 117.637C47.5711 117.437 48.1711 117.067 48.6411 116.577C49.0911 116.107 49.4111 115.557 49.5911 114.927C49.7711 114.327 49.8012 113.697 49.6912 113.057C49.5812 112.457 49.3411 111.837 48.9811 111.197C48.0111 109.537 47.8511 107.627 48.5411 105.837C49.1811 104.157 50.4112 102.767 52.0012 101.927C52.5112 101.677 52.9611 101.277 53.3511 100.747C53.7111 100.257 53.9912 99.6773 54.1812 99.0373C54.3612 98.4273 54.4411 97.7973 54.4211 97.1673C54.4011 96.5973 54.2911 96.0073 54.1111 95.4273C53.6111 93.9373 53.7111 92.1873 54.4111 90.3673C55.0211 88.7773 56.0011 87.2673 57.0911 86.2473C57.2811 86.0773 57.4911 86.0273 57.6711 86.0973L57.6812 86.1073C57.8112 86.1673 57.9811 86.2973 58.0211 86.5873Z" fill="#492D21"/>
<path d="M1.6411 54.4473C1.4111 54.6973 1.1111 54.8273 0.831102 54.7873C0.541102 54.7473 0.30111 54.5573 0.15111 54.2573C-0.12889 53.6973 -0.00890124 52.8573 0.421099 52.3973C2.0111 50.7373 4.01111 50.0573 5.90111 50.5273C7.64111 50.9573 9.08109 52.2573 10.0411 54.2773C10.7011 55.5773 11.7811 56.4173 13.0811 56.6273C14.3211 56.8273 15.6011 56.4473 16.6711 55.5673C18.1611 54.4073 20.0911 54.0073 21.9611 54.4773C23.6811 54.9073 25.1711 55.9273 26.2411 57.4373C26.9711 58.4073 28.0711 59.0373 29.4111 59.2473C30.6511 59.4473 31.9411 59.2673 32.9511 58.7373C34.3311 58.0673 36.1311 57.9473 38.0311 58.4273C40.1311 58.9473 41.5811 59.8873 42.4311 60.5873C42.6911 60.7873 42.7111 60.9973 42.6911 61.1073C42.6811 61.2073 42.6111 61.4473 42.2411 61.5573C42.1311 61.5873 42.0011 61.6073 41.8711 61.6073C41.5411 61.6073 41.1811 61.4973 40.9511 61.3073C40.0811 60.6173 38.8811 60.0673 37.6711 59.8173C36.3211 59.5273 35.1111 59.6373 34.1711 60.1273C32.7111 60.8673 30.8811 61.1773 29.1511 60.9573C27.2211 60.7273 25.6511 59.8573 24.6011 58.4573C23.8211 57.4073 22.7111 56.6973 21.4811 56.4373C20.1511 56.1573 18.9211 56.4473 17.9111 57.2873C16.3711 58.5473 14.5311 59.1273 12.7411 58.9073C10.8211 58.6673 9.24108 57.4973 8.28108 55.6073C7.57108 54.2173 6.50108 53.3073 5.28108 53.0473C3.99108 52.7773 2.7011 53.2773 1.6411 54.4473Z" fill="#492D21"/>
<path d="M36.7611 7.06732C36.6311 6.80732 36.6511 6.50732 36.8111 6.21732C37.1111 5.66732 37.8711 5.29732 38.4911 5.37732C40.7611 5.73732 42.4511 6.99732 43.1411 8.82732C43.7711 10.5073 43.5211 12.4173 42.4111 14.3673C41.7011 15.6473 41.6311 17.0173 42.1911 18.1973C42.7411 19.3373 43.7711 20.1773 45.1111 20.5673C46.9011 21.1173 48.3211 22.4773 49.0111 24.2973C49.6311 25.9473 49.6311 27.7473 49.0011 29.4973C48.6211 30.6573 48.7211 31.9073 49.3011 33.1373C49.8511 34.2673 50.7311 35.2273 51.7311 35.7573C53.0711 36.5073 54.1811 37.9273 54.8811 39.7673C55.6311 41.7773 55.6911 43.5073 55.6011 44.6173C55.5811 44.9473 55.4111 45.0773 55.3111 45.1273C55.2711 45.1473 55.2011 45.1773 55.1011 45.1773C54.9911 45.1773 54.8511 45.1373 54.6911 45.0073C54.3611 44.7373 54.1311 44.2173 54.1611 43.8073C54.2411 42.6973 54.0111 41.4073 53.5311 40.2573C53.0011 38.9873 52.2211 38.0573 51.2911 37.5473C49.8411 36.7673 48.5511 35.4373 47.7511 33.8873C46.8511 32.1673 46.6711 30.3773 47.2311 28.7273C47.6411 27.5173 47.6011 26.1573 47.1211 25.0073C46.6011 23.7673 45.6611 22.9173 44.4011 22.5573C42.4811 21.9973 40.9611 20.8173 40.1211 19.2073C39.2311 17.4973 39.2911 15.5373 40.3111 13.6773C41.0411 12.3273 41.1911 10.8973 40.7111 9.74732C40.2011 8.52732 39.0911 7.76732 37.4911 7.54732C37.1511 7.49732 36.8811 7.32732 36.7611 7.06732Z" fill="#492D21"/>
<path d="M123.861 91.1173C123.991 91.7273 123.641 92.4973 123.101 92.8373C121.951 93.5473 120.791 93.9173 119.681 93.9173C118.881 93.9173 118.101 93.7273 117.391 93.3473C115.781 92.4973 114.661 90.8473 114.221 88.6873C113.941 87.2773 113.121 86.2173 111.911 85.7073C110.751 85.2173 109.391 85.2573 108.091 85.8373C106.341 86.6173 104.451 86.5473 102.751 85.6473C101.161 84.8073 99.9211 83.4173 99.2511 81.7173C98.8211 80.6173 97.9411 79.7573 96.6911 79.2273C95.5411 78.7373 94.2111 78.5973 93.0611 78.8373C91.5411 79.1673 89.8211 78.8573 88.1011 77.9473C86.6011 77.1473 85.2111 75.9873 84.3011 74.7573C84.1011 74.4873 84.1611 74.2773 84.2111 74.1773C84.2611 74.0673 84.4111 73.8973 84.7811 73.8873C84.7811 73.8873 84.7911 73.8873 84.8011 73.8873C85.2411 73.8873 85.7411 74.1273 85.9711 74.4373C86.5911 75.2973 87.6011 76.1073 88.7311 76.6473C89.9711 77.2473 91.1911 77.4473 92.2711 77.2173C94.0011 76.8573 95.6911 76.9973 97.3011 77.6073C98.1911 77.9473 98.9711 78.4173 99.6111 78.9973C100.121 79.4573 100.801 80.2073 101.151 81.1573C101.601 82.3273 102.491 83.2773 103.631 83.8373C104.821 84.4073 106.151 84.4273 107.361 83.8873C108.401 83.4473 109.221 83.2273 110.041 83.1673C110.981 83.0973 111.891 83.2273 112.741 83.5573C113.631 83.8973 114.391 84.4373 115.001 85.1573C115.471 85.7073 116.081 86.6273 116.301 87.8473C116.611 89.3473 117.401 90.4673 118.531 91.0173C119.711 91.5873 121.111 91.4273 122.471 90.5573C122.771 90.3773 123.091 90.3373 123.361 90.4473C123.621 90.5573 123.801 90.7973 123.861 91.1173Z" fill="#492D21"/>
<path d="M87.5211 58.9173C86.8411 58.9173 86.1811 58.8573 85.5811 58.7273C85.2611 58.6773 85.1511 58.4973 85.1011 58.3973C85.0911 58.3673 85.0711 58.3073 85.0711 58.2373C85.0711 58.1173 85.1211 57.9573 85.2911 57.7873C85.5911 57.4873 86.1311 57.3173 86.5411 57.3873C87.7011 57.5773 88.9411 57.4973 90.1111 57.1473C91.4511 56.7473 92.5011 56.0573 93.0611 55.2073C93.9911 53.8573 95.4511 52.7273 97.0711 52.0873C98.8811 51.3773 100.681 51.3873 102.271 52.1173C102.521 52.2273 102.711 52.4373 102.781 52.6873C102.851 52.9373 102.821 53.1873 102.691 53.4073C102.381 53.8673 101.781 54.0373 101.321 53.7873C100.211 53.2873 98.9411 53.2573 97.6611 53.7073C96.4811 54.1273 95.4411 54.8973 94.8111 55.8373C93.8511 57.1173 92.3511 58.0573 90.4711 58.5373C89.5011 58.7873 88.4811 58.9173 87.5211 58.9173Z" fill="#492D21"/>
<path d="M86.0911 69.4173C85.8211 69.2073 85.8111 68.9873 85.8211 68.8773C85.8511 68.6773 86.0111 68.5173 86.2711 68.4373C86.6911 68.3073 87.2511 68.4073 87.5711 68.6673C88.4311 69.3473 89.6311 69.8773 90.8611 70.1173C92.2111 70.3773 93.4211 70.2573 94.3611 69.7573C95.8311 68.9973 97.6711 68.6673 99.4011 68.8473C101.331 69.0573 102.911 69.9073 103.951 71.2873C104.111 71.4973 104.181 71.7673 104.131 72.0173C104.081 72.2673 103.921 72.4873 103.701 72.6173C103.541 72.7173 103.361 72.7573 103.181 72.7573C102.851 72.7573 102.531 72.6073 102.311 72.3373C101.581 71.3673 100.481 70.7573 99.1411 70.5573C97.9011 70.3773 96.6011 70.5873 95.5911 71.1173C94.9111 71.4873 94.1011 71.7073 93.2011 71.7573C92.3711 71.8173 91.4711 71.7273 90.5511 71.5173C89.7011 71.3173 88.8711 71.0273 88.0811 70.6473C87.3711 70.2873 86.6811 69.8673 86.0911 69.4173Z" fill="#492D21"/>
<path d="M50.2011 88.2873C49.4711 89.4473 49.1511 90.6373 49.2711 91.7273C49.4211 93.5173 49.1111 95.1973 48.3311 96.7173C47.4311 98.4873 46.0011 99.7273 44.4111 100.137C44.3311 100.157 44.2511 100.167 44.1711 100.167C44.0011 100.167 43.8311 100.117 43.6811 100.027C43.4711 99.8873 43.3211 99.6573 43.2811 99.3973C43.1911 98.8673 43.5311 98.3473 44.0411 98.2073C45.1911 97.8873 46.1411 97.0973 46.8011 95.9073C47.4111 94.8173 47.6911 93.5173 47.5711 92.3473C47.4011 90.8173 47.8811 89.1473 48.9711 87.5373C49.9211 86.1273 51.2311 84.8673 52.5611 84.0773C52.8511 83.9073 53.0511 83.9873 53.1511 84.0473C53.2511 84.1073 53.4111 84.2673 53.3811 84.6373C53.3411 85.0773 53.0511 85.5573 52.7011 85.7673C51.7811 86.2973 50.8711 87.2173 50.2011 88.2873Z" fill="#492D21"/>
<path d="M84.4011 47.1173C83.1311 48.2673 81.5811 49.1573 80.1511 49.5573C80.0611 49.5873 79.9711 49.5973 79.9011 49.5973C79.7411 49.5973 79.6311 49.5273 79.5711 49.4773C79.5111 49.4273 79.4011 49.3073 79.4011 49.0973C79.4011 49.0273 79.4111 48.9473 79.4411 48.8573C79.5711 48.4473 79.9711 48.0473 80.3711 47.9173C81.4811 47.5573 82.5411 46.9073 83.4311 46.0473C84.4311 45.0773 85.0311 43.9773 85.1311 42.9573C85.3211 41.3373 86.0811 39.6473 87.2211 38.3273C88.5011 36.8573 90.1011 36.0273 91.8511 35.9373C92.1211 35.9273 92.3811 36.0273 92.5711 36.2173C92.7511 36.3973 92.8311 36.6373 92.8111 36.8973C92.7611 37.4373 92.3011 37.8673 91.7811 37.8673C90.5711 37.9373 89.4311 38.4973 88.5111 39.4873C87.6511 40.4073 87.0911 41.5873 86.9711 42.7073C86.7311 44.2873 85.8411 45.8173 84.4011 47.1173Z" fill="#492D21"/>
<path d="M81.6211 79.0473C81.4811 78.7373 81.5711 78.5373 81.6411 78.4473C81.7311 78.3173 81.8911 78.2473 82.0811 78.2473C82.1411 78.2473 82.1911 78.2573 82.2511 78.2673C82.6811 78.3573 83.1211 78.6973 83.2911 79.0773C83.7311 80.0773 84.5411 81.1073 85.5211 81.8873C86.5811 82.7473 87.7211 83.2073 88.7911 83.2073C90.4511 83.2173 92.2311 83.7873 93.6711 84.7573C95.2911 85.8473 96.2911 87.3273 96.5611 89.0373C96.6011 89.2973 96.5311 89.5673 96.3711 89.7673C96.2111 89.9573 95.9711 90.0873 95.7111 90.0973H95.6511C95.1511 90.0973 94.7011 89.7073 94.6211 89.1973C94.4211 87.9973 93.7411 86.9473 92.6411 86.1473C91.6311 85.4073 90.3811 84.9873 89.2311 84.9873C87.7911 85.0273 86.0811 84.2873 84.5911 82.9973C83.3311 81.9073 82.3311 80.5773 81.6211 79.0473Z" fill="#492D21"/>
<path d="M77.0011 128.187C77.0511 128.467 76.9611 128.747 76.7311 128.977C76.4411 129.277 75.9711 129.437 75.5211 129.437C75.3011 129.437 75.0811 129.397 74.8811 129.317C72.7511 128.387 71.4511 126.827 71.2211 124.897C71.0111 123.097 71.7311 121.227 73.2511 119.657C74.2611 118.627 74.6611 117.357 74.4011 116.067C74.1411 114.827 73.3411 113.727 72.1211 112.987C70.4911 111.987 69.4711 110.387 69.2511 108.477C69.0411 106.697 69.4811 104.887 70.5011 103.377C71.1611 102.397 71.3711 101.177 71.1011 99.8573C70.8411 98.6273 70.2111 97.4573 69.3511 96.6373C68.2211 95.5673 67.5011 93.9873 67.2711 92.0473C67.0711 90.3573 67.2411 88.5573 67.7411 87.1173C67.8211 86.8873 67.9811 86.7373 68.1711 86.7073C68.2911 86.6973 68.5111 86.7173 68.7311 87.0173C68.9911 87.3773 69.0811 87.9373 68.9511 88.3073C68.6011 89.3073 68.5011 90.5973 68.6911 91.8373C68.9011 93.1873 69.4411 94.3073 70.2411 95.0773C71.5111 96.2773 72.3611 97.7473 72.7711 99.4373C73.2411 101.337 72.9711 103.227 72.0411 104.607C71.3311 105.657 71.0511 106.927 71.2411 108.177C71.4411 109.487 72.1811 110.587 73.3111 111.287C75.1011 112.367 76.2211 113.797 76.6411 115.527C77.1111 117.437 76.5611 119.387 75.1311 120.887C74.0711 121.987 73.5911 123.277 73.7911 124.527C73.9811 125.817 74.9111 126.877 76.4011 127.517C76.7211 127.657 76.9411 127.897 77.0011 128.187Z" fill="#492D21"/>
<path d="M76.0511 44.7173C77.0011 44.1873 77.9211 43.2673 78.6011 42.2173C79.3511 41.0673 79.6811 39.8873 79.5811 38.8073C79.5011 38.0073 79.5511 37.1673 79.7211 36.3073C79.8911 35.3973 80.1811 34.5773 80.6011 33.8073C81.5111 32.0773 82.9211 30.8873 84.5511 30.4673C85.7911 30.1373 86.8511 29.3573 87.5411 28.2873C88.2511 27.1773 88.4211 25.8773 88.0211 24.6273C87.7311 23.6973 87.6011 22.7573 87.6611 21.8273C87.7111 20.8573 87.9411 19.9973 88.3711 19.1973C89.2911 17.4573 90.9411 16.4073 93.0311 16.2273C94.5611 16.0873 95.7811 15.4273 96.4711 14.3673C97.1711 13.2673 97.1711 11.8773 96.4711 10.4373C96.3211 10.1173 96.3211 9.79732 96.4611 9.54732C96.6011 9.29732 96.8611 9.14732 97.1911 9.11732C97.8211 9.06732 98.5411 9.48732 98.8111 10.0573C99.3211 11.1073 99.5611 12.1373 99.5311 13.1173C99.4811 14.0973 99.1811 14.9973 98.6311 15.7873C98.1111 16.5373 97.4011 17.1373 96.5311 17.5773C95.6711 18.0073 94.7011 18.2773 93.6311 18.3773C92.1811 18.4973 91.0311 19.1973 90.3711 20.3373C89.7411 21.4373 89.6311 22.7773 90.0511 24.1173C90.3511 25.0373 90.4211 25.9573 90.2811 26.8673C90.1211 27.7573 89.7711 28.6073 89.2211 29.3973C88.7111 30.1273 88.0711 30.7573 87.3111 31.2773C86.5711 31.7873 85.7511 32.1573 84.9011 32.3873C83.7411 32.7073 82.7711 33.4873 82.1011 34.6673C81.4711 35.7473 81.1711 37.0373 81.2911 38.1873C81.3711 38.9773 81.2811 39.7973 81.0211 40.6173C80.7611 41.4173 80.3611 42.2173 79.8111 42.9973C79.3211 43.7173 78.7411 44.3773 78.0911 44.9673C77.4811 45.5373 76.8211 46.0273 76.1911 46.3873C76.0511 46.4673 75.9411 46.4973 75.8411 46.4973C75.7311 46.4973 75.6511 46.4573 75.6011 46.4273C75.4411 46.3373 75.3611 46.1473 75.3611 45.9173V45.8373C75.4011 45.3973 75.7011 44.9173 76.0511 44.7173Z" fill="#492D21"/>
<path d="M64.3911 97.8873C64.6711 98.7573 64.8111 99.6173 64.8211 100.497C64.8211 101.447 64.6711 102.367 64.3711 103.167C64.0511 103.987 63.5711 104.717 62.9411 105.317C62.7611 105.477 62.5411 105.567 62.3111 105.567H62.2411C61.9811 105.547 61.7411 105.417 61.5811 105.207C61.2611 104.787 61.3211 104.167 61.7011 103.797C62.5811 102.967 63.0511 101.817 63.0811 100.467C63.1111 99.2073 62.7511 97.9373 62.1011 96.9773C61.2211 95.6973 60.8711 94.0073 61.0811 92.0573C61.2611 90.3773 61.8411 88.6573 62.6511 87.3273C62.8311 87.0473 63.0711 87.0073 63.1611 87.0173C63.3611 87.0273 63.5411 87.1773 63.6511 87.4273C63.8311 87.8273 63.7911 88.3973 63.5811 88.7373C63.0011 89.6573 62.6211 90.8973 62.5311 92.1473C62.4311 93.5173 62.7011 94.7173 63.3111 95.6173C63.7611 96.2873 64.1311 97.0473 64.3911 97.8873Z" fill="#492D21"/>
<path d="M129.211 62.3073C128.061 64.3073 126.361 65.4073 124.431 65.4073H124.421C122.601 65.3973 120.821 64.4673 119.421 62.7673C118.501 61.6473 117.271 61.0973 115.961 61.2073C114.701 61.3073 113.531 61.9773 112.661 63.0873C111.501 64.5773 109.811 65.4073 107.891 65.4073H107.881C106.081 65.3973 104.331 64.7373 102.921 63.5473C102.011 62.7773 100.821 62.4273 99.4711 62.5273C98.2211 62.6373 96.9911 63.1273 96.1011 63.8773C94.9311 64.8773 93.2911 65.4073 91.3611 65.4073H91.3311C89.6311 65.3973 87.8511 65.0073 86.4511 64.3373C86.1511 64.1873 86.0911 63.9773 86.0911 63.8673C86.0911 63.7473 86.1311 63.5173 86.4411 63.3373C86.8311 63.1173 87.4011 63.0973 87.7611 63.2773C88.7311 63.7473 89.9911 63.9973 91.2611 63.9573C92.6311 63.9073 93.7911 63.5173 94.6311 62.8173C95.2211 62.3073 95.9611 61.8573 96.7711 61.5073C97.5811 61.1473 98.4311 60.9073 99.3211 60.8073C100.261 60.6973 101.171 60.7473 102.021 60.9673C102.871 61.1873 103.641 61.5873 104.311 62.1673C105.291 62.9973 106.511 63.4373 107.791 63.3873C109.111 63.3473 110.291 62.7473 111.091 61.7073C111.671 60.9673 112.401 60.3073 113.191 59.8173C113.981 59.3273 114.851 59.0173 115.751 58.9173C116.701 58.8073 117.631 58.9273 118.511 59.2773C119.371 59.6373 120.161 60.2273 120.851 61.0573C121.831 62.2373 123.081 62.8773 124.321 62.8173C125.631 62.7773 126.781 61.9873 127.581 60.5973C127.751 60.2973 128.011 60.1073 128.301 60.0873C128.591 60.0673 128.861 60.1873 129.071 60.4373C129.461 60.9173 129.521 61.7573 129.211 62.3073Z" fill="#492D21"/>
<path d="M60.8211 38.3173C61.0511 40.0073 60.9011 41.7973 60.4211 43.2273C60.3411 43.4673 60.1911 43.6073 59.9911 43.6373H59.9311C59.7711 43.6373 59.6011 43.5373 59.4411 43.3473C59.1811 43.0173 59.0711 42.4573 59.1911 42.0573C59.5411 41.0273 59.6111 39.7773 59.4011 38.5373C59.1711 37.1873 58.6111 36.0373 57.8111 35.3073C56.6011 34.2673 55.6511 32.6873 55.2211 30.9973C54.7311 29.1173 54.9611 27.3173 55.8711 25.7973C56.0011 25.5773 56.2211 25.4373 56.4611 25.3973C56.7211 25.3573 57.0011 25.4373 57.2211 25.6173C57.6211 25.9573 57.7211 26.5773 57.4311 27.0173C56.7911 27.9373 56.5911 29.2273 56.8911 30.5673C57.1611 31.7873 57.7611 32.8573 58.6811 33.7373C59.8311 34.8073 60.5711 36.3873 60.8211 38.3173Z" fill="#492D21"/>
<path d="M72.4411 35.7873C71.8511 34.2573 71.7411 32.4173 72.1411 30.7173C72.5811 28.8173 73.6111 27.3473 75.1111 26.4473C75.3511 26.3073 75.6311 26.2773 75.8811 26.3573C76.1211 26.4273 76.3111 26.6073 76.4111 26.8373C76.6211 27.3373 76.4112 27.9373 75.9512 28.1873C74.9212 28.7973 74.1611 29.8473 73.8111 31.1473C73.4811 32.3573 73.5311 33.6473 73.9411 34.7073C74.4611 36.2173 74.3711 37.9773 73.7111 39.8073C73.1211 41.4173 72.1611 42.9173 71.0911 43.9373C70.9111 44.1173 70.7511 44.1573 70.6411 44.1573C70.6011 44.1573 70.5711 44.1473 70.5411 44.1473C70.4411 44.1173 70.2111 44.0273 70.1411 43.6473C70.0711 43.2273 70.2311 42.6873 70.5311 42.3973C71.3411 41.5473 71.9711 40.4773 72.3611 39.3073C72.7811 37.9973 72.8111 36.7173 72.4411 35.7873Z" fill="#492D21"/>
<path d="M104.851 115.007C105.021 115.227 105.071 115.517 104.981 115.827C104.811 116.427 104.151 116.947 103.511 116.997C103.291 117.017 103.071 117.017 102.861 117.017C100.851 117.017 99.2111 116.247 98.2211 114.807C97.1911 113.307 96.9611 111.317 97.5611 109.207C97.9711 107.827 97.7311 106.507 96.9011 105.497C96.0911 104.517 94.8711 103.927 93.4511 103.837C91.5511 103.717 89.9011 102.777 88.8111 101.197C87.7911 99.7173 87.3411 97.9073 87.5311 96.0973C87.6611 94.9173 87.2811 93.7373 86.4211 92.6973C85.6211 91.7173 84.5111 90.9873 83.3811 90.6673C81.8811 90.2573 80.5011 89.1873 79.4011 87.5873C78.4411 86.1873 77.7511 84.5073 77.5111 82.9973C77.4711 82.7573 77.5411 82.5473 77.7011 82.4373C77.8011 82.3673 78.0111 82.2773 78.3411 82.4373C78.7411 82.6373 79.0811 83.0873 79.1411 83.4773C79.2911 84.5373 79.8111 85.7173 80.5611 86.7273C81.3711 87.8273 82.3711 88.5673 83.4311 88.8673C84.3011 89.1273 85.0211 89.4373 85.6811 89.8373C86.4511 90.3073 87.1311 90.8773 87.7211 91.5473C88.3411 92.2573 88.8111 93.0373 89.1211 93.8573C89.4511 94.7573 89.5811 95.6573 89.4711 96.4673C89.3311 97.7173 89.6711 98.9773 90.4311 99.9973C91.2211 101.057 92.3811 101.687 93.7111 101.777C94.7911 101.857 95.6511 102.057 96.4211 102.387C97.2911 102.757 98.0311 103.297 98.6311 103.977C99.2611 104.697 99.6911 105.527 99.8911 106.447C100.121 107.447 100.091 108.477 99.7911 109.427C99.3811 110.887 99.5611 112.257 100.311 113.267C101.081 114.317 102.401 114.827 104.001 114.697C104.371 114.667 104.661 114.777 104.851 115.007Z" fill="#492D21"/>
<path d="M102.001 43.3373C103.151 42.6873 103.911 41.6173 104.131 40.3273C104.481 38.3273 105.481 36.6773 106.951 35.6673C108.561 34.5573 110.511 34.3973 112.451 35.1973C113.881 35.7773 115.271 35.7573 116.371 35.1373C117.501 34.4873 118.151 33.2573 118.191 31.6573C118.201 31.3073 118.341 31.0173 118.591 30.8673C118.831 30.7073 119.131 30.6873 119.431 30.8173C120.011 31.0573 120.461 31.7673 120.441 32.4073C120.401 33.5873 120.141 34.6073 119.651 35.4473C119.151 36.2973 118.471 36.9573 117.621 37.3973C116.811 37.8273 115.891 38.0373 114.931 38.0073C113.971 37.9873 112.961 37.7773 112.001 37.3773C110.651 36.8173 109.301 36.8973 108.191 37.6073C107.131 38.2873 106.411 39.4273 106.171 40.8073C106.001 41.7673 105.631 42.6273 105.091 43.3473C104.531 44.0673 103.821 44.6573 102.981 45.0973C102.181 45.5173 101.321 45.7873 100.421 45.8773C99.5211 45.9873 98.6011 45.9373 97.7711 45.7573C96.5911 45.4973 95.3711 45.7473 94.2311 46.4673C93.1711 47.1473 92.3111 48.1473 91.8811 49.2173C91.5811 49.9673 91.1311 50.6473 90.5211 51.2473C89.9111 51.8373 89.1811 52.3573 88.3411 52.7973C87.5711 53.2073 86.7511 53.5273 85.9011 53.7473C85.0811 53.9673 84.2711 54.0973 83.5611 54.1273H83.5211C83.2111 54.1273 83.0811 53.9773 83.0211 53.8873C82.9911 53.8373 82.9511 53.7473 82.9511 53.6373C82.9511 53.5373 82.9811 53.4073 83.0811 53.2573C83.3211 52.8873 83.8011 52.5973 84.2111 52.5873C85.3011 52.5473 86.5511 52.1673 87.6411 51.5473C88.8311 50.8673 89.6711 49.9773 90.0711 48.9773C90.7111 47.4273 91.8811 45.9873 93.3011 45.0073C94.9211 43.8973 96.6711 43.5073 98.3411 43.8873C99.5911 44.1573 100.901 43.9673 102.001 43.3373Z" fill="#492D21"/>
<path d="M81.1811 96.1973C82.1011 97.9173 82.3011 99.6873 81.7511 101.327C81.6711 101.577 81.4911 101.787 81.2511 101.887C81.1411 101.937 81.0211 101.957 80.9011 101.957C80.7711 101.957 80.6311 101.927 80.5111 101.877C80.0411 101.657 79.7911 101.087 79.9611 100.567C80.3411 99.4173 80.2211 98.1673 79.6211 96.9573C79.0611 95.8273 78.1611 94.8773 77.1411 94.3473C75.8511 93.6973 74.6811 92.2673 73.9611 90.4173C73.3511 88.8773 73.0811 87.2373 73.1611 85.5573C73.1811 85.2173 73.3411 85.0873 73.4411 85.0373C73.6311 84.9373 73.8511 84.9873 74.0711 85.1573C74.4111 85.4273 74.6411 85.9473 74.6111 86.3473C74.5411 87.4473 74.7911 88.7373 75.2911 89.8873C75.8411 91.1373 76.6311 92.0673 77.5711 92.5673C79.0411 93.3473 80.3511 94.6673 81.1811 96.1973Z" fill="#492D21"/>
<path d="M67.7711 38.3173C67.5611 39.9873 67.0111 41.5673 66.1411 42.9873C65.9711 43.2573 65.7611 43.3073 65.6511 43.3073C65.6411 43.3073 65.6411 43.3073 65.6311 43.3073C65.5111 43.2973 65.2911 43.2373 65.1411 42.8973C64.9711 42.4973 65.0111 41.9373 65.2311 41.5873C65.8211 40.6673 66.2211 39.4173 66.3311 38.1673C66.4511 36.7973 66.2011 35.6073 65.6011 34.7173C64.6811 33.3273 64.1611 31.5373 64.1611 29.7973C64.1611 27.8473 64.8411 26.1973 66.1111 25.0173C67.0511 24.1373 67.6311 22.9473 67.7411 21.6773C67.8511 20.3673 67.4011 19.1373 66.4611 18.2373C65.0211 16.8273 64.2411 15.0573 64.2411 13.2573C64.2411 11.3273 65.2111 9.62732 66.9711 8.46732C68.2611 7.61732 69.0311 6.45732 69.1411 5.19732C69.2611 3.89732 68.6111 2.66732 67.3211 1.73732C67.0511 1.52732 66.8911 1.24732 66.9011 0.957317C66.9011 0.677317 67.0611 0.41732 67.3411 0.23732C67.8611 -0.10268 68.7011 -0.0726827 69.2111 0.297317C71.0211 1.58732 71.9611 3.51732 71.7211 5.46732C71.5011 7.22732 70.4211 8.77732 68.5111 10.0673C67.2911 10.8673 66.5911 12.0373 66.5411 13.3473C66.4911 14.6073 67.0111 15.8473 68.0211 16.8173C69.3511 18.0773 69.9811 19.9273 69.7411 21.8873C69.5311 23.6273 68.7111 25.1873 67.3211 26.5373C66.4411 27.3673 65.9411 28.5273 65.8911 29.8773C65.8411 31.1373 66.1811 32.3973 66.8311 33.3573C67.6811 34.5673 68.0111 36.3273 67.7711 38.3173Z" fill="#492D21"/>
</svg>
