<svg width="105" height="105" viewBox="0 0 105 105" fill="none" xmlns="http://www.w3.org/2000/svg">
<path d="M51.6721 22.428C51.3951 21.297 51.3231 20.146 51.5141 19.049C51.5501 18.77 51.6201 18.501 51.7081 18.238C51.7711 17.962 51.8971 17.714 52.0061 17.454C52.2111 16.948 52.4911 16.563 52.9221 16.097C53.7361 15.204 55.0881 14.21 55.8171 12.642C56.4981 11.131 56.5851 9.57099 56.4461 8.10199C56.0841 5.16799 54.8231 2.527 53.0911 0.348999C54.4511 2.763 55.2051 5.52401 55.0951 8.14401C55.0151 9.43401 54.6851 10.717 54.0421 11.663C53.4281 12.578 52.3581 13.15 51.1161 14.087C48.3781 16.181 47.3961 19.817 47.6591 23.011C47.7711 24.304 48.0321 25.558 48.4181 26.771C50.0131 26.433 51.6631 26.244 53.3501 26.21C52.5971 25.041 52.0041 23.749 51.6721 22.428Z" fill="#492D21"/>
<path d="M52.272 78.803C52.882 79.84 53.361 80.962 53.648 82.104C53.925 83.235 53.997 84.386 53.806 85.483C53.77 85.763 53.7 86.031 53.612 86.294C53.549 86.57 53.423 86.818 53.314 87.078C53.109 87.584 52.829 87.969 52.398 88.436C51.584 89.328 50.232 90.323 49.503 91.891C48.822 93.402 48.735 94.962 48.874 96.431C49.236 99.365 50.497 102.006 52.229 104.184C50.869 101.77 50.115 99.009 50.225 96.389C50.305 95.099 50.635 93.816 51.278 92.87C51.892 91.955 52.962 91.383 54.204 90.446C56.942 88.352 57.924 84.716 57.661 81.522C57.576 80.541 57.399 79.585 57.155 78.649C56.086 78.781 55 78.857 53.896 78.857C53.351 78.858 52.81 78.836 52.272 78.803Z" fill="#492D21"/>
<path d="M82.499 51.277C83.63 51 84.7811 50.928 85.8781 51.119C86.1571 51.155 86.426 51.225 86.689 51.313C86.965 51.376 87.2131 51.502 87.4731 51.611C87.9791 51.816 88.364 52.096 88.83 52.527C89.723 53.341 90.717 54.693 92.285 55.422C93.796 56.103 95.356 56.19 96.826 56.051C99.76 55.689 102.401 54.428 104.579 52.696C102.165 54.056 99.404 54.81 96.784 54.7C95.494 54.62 94.211 54.289 93.265 53.647C92.35 53.033 91.778 51.963 90.841 50.721C88.747 47.983 85.1111 47.001 81.9171 47.264C81.1861 47.328 80.468 47.443 79.761 47.596C80.039 49.063 80.195 50.573 80.218 52.115C80.957 51.761 81.722 51.473 82.499 51.277Z" fill="#492D21"/>
<path d="M27.624 50.854C26.219 51.954 24.543 52.822 22.822 53.254C21.691 53.531 20.54 53.603 19.443 53.412C19.163 53.376 18.895 53.306 18.632 53.218C18.356 53.155 18.108 53.029 17.848 52.92C17.342 52.714 16.957 52.435 16.491 52.004C15.598 51.19 14.604 49.838 13.036 49.109C11.525 48.428 9.96504 48.341 8.49604 48.48C5.56204 48.842 2.92104 50.103 0.743042 51.835C3.15704 50.475 5.91804 49.721 8.53804 49.831C9.82804 49.911 11.111 50.241 12.057 50.884C12.972 51.498 13.544 52.568 14.481 53.811C16.575 56.549 20.211 57.531 23.405 57.268C24.939 57.135 26.418 56.795 27.838 56.279C27.663 55.053 27.567 53.801 27.567 52.526C27.565 51.964 27.589 51.408 27.624 50.854Z" fill="#492D21"/>
<path d="M73.06 30.468C73.664 29.473 74.427 28.607 75.338 27.967C75.561 27.795 75.8 27.654 76.049 27.531C76.289 27.381 76.553 27.294 76.814 27.188C77.317 26.976 77.787 26.901 78.422 26.876C79.629 26.82 81.288 27.073 82.912 26.48C84.462 25.893 85.627 24.852 86.567 23.714C88.385 21.383 89.361 18.624 89.676 15.859C88.931 18.528 87.512 21.013 85.581 22.788C84.612 23.644 83.4721 24.317 82.3481 24.531C81.2671 24.744 80.106 24.392 78.565 24.176C75.148 23.72 71.883 25.597 69.81 28.042C69.186 28.785 68.641 29.574 68.157 30.396C69.477 31.248 70.716 32.214 71.86 33.282C72.156 32.294 72.543 31.332 73.06 30.468Z" fill="#492D21"/>
<path d="M33.8481 69.586C33.5841 71.154 33.0661 72.717 32.2611 74.063C31.6571 75.058 30.8941 75.924 29.9841 76.564C29.7611 76.736 29.5221 76.877 29.2731 77C29.0331 77.15 28.7691 77.237 28.5081 77.343C28.0051 77.555 27.5351 77.63 26.9001 77.655C25.6931 77.711 24.0341 77.458 22.4101 78.051C20.8601 78.638 19.6951 79.679 18.7551 80.817C16.9371 83.148 15.9601 85.907 15.6451 88.672C16.3901 86.004 17.8091 83.518 19.7401 81.743C20.7091 80.887 21.8491 80.214 22.9731 80C24.0541 79.787 25.2151 80.139 26.7561 80.356C30.1731 80.812 33.4381 78.935 35.5111 76.49C36.3581 75.482 37.0681 74.394 37.6581 73.244C36.2681 72.155 34.9911 70.93 33.8481 69.586Z" fill="#492D21"/>
<path d="M72.0421 71.599C72.8861 71.881 73.7101 72.219 74.4581 72.666C75.4531 73.27 76.3181 74.033 76.9591 74.943C77.1311 75.166 77.2721 75.405 77.3951 75.654C77.5451 75.894 77.6321 76.158 77.7381 76.419C77.9501 76.922 78.0251 77.392 78.0501 78.027C78.1061 79.234 77.8531 80.893 78.4461 82.517C79.0331 84.067 80.0741 85.232 81.2121 86.172C83.5431 87.99 86.3021 88.966 89.0671 89.281C86.3981 88.536 83.9131 87.117 82.1381 85.186C81.2821 84.217 80.6091 83.077 80.3951 81.953C80.1821 80.872 80.5341 79.711 80.7501 78.17C81.2061 74.753 79.3291 71.488 76.8841 69.415C76.3181 68.939 75.7251 68.51 75.1131 68.116C74.1941 69.368 73.1641 70.531 72.0421 71.599Z" fill="#492D21"/>
<path d="M35.6831 33.52C34.0011 33.28 32.3071 32.73 30.8621 31.866C29.8671 31.262 29.0011 30.499 28.3611 29.589C28.1891 29.366 28.0481 29.127 27.9251 28.878C27.7751 28.638 27.6881 28.374 27.5821 28.113C27.3701 27.61 27.2951 27.14 27.2701 26.505C27.2141 25.298 27.4671 23.639 26.8741 22.015C26.2871 20.465 25.2461 19.301 24.1081 18.36C21.7781 16.542 19.0181 15.565 16.2531 15.25C18.9221 15.995 21.4071 17.414 23.1821 19.345C24.0381 20.314 24.7111 21.454 24.9251 22.578C25.1381 23.659 24.7861 24.82 24.5691 26.361C24.1131 29.778 25.9901 33.043 28.4351 35.116C29.6081 36.101 30.8871 36.904 32.2501 37.542C33.2581 36.087 34.4101 34.741 35.6831 33.52Z" fill="#492D21"/>
<path d="M63.576 24.478C63.77 23.33 64.16 22.244 64.77 21.313C64.914 21.071 65.084 20.852 65.27 20.645C65.438 20.417 65.651 20.239 65.855 20.043C66.244 19.66 66.653 19.417 67.234 19.16C68.335 18.663 69.97 18.285 71.261 17.135C72.485 16.018 73.183 14.62 73.637 13.215C74.467 10.378 74.356 7.45297 73.628 4.76697C73.921 7.52197 73.519 10.356 72.379 12.718C71.794 13.871 70.983 14.917 70.018 15.531C69.091 16.128 67.883 16.229 66.371 16.597C63.027 17.434 60.685 20.384 59.661 23.421C59.305 24.492 59.066 25.58 58.925 26.679C60.515 26.986 62.052 27.439 63.526 28.018C63.381 26.836 63.389 25.629 63.576 24.478Z" fill="#492D21"/>
<path d="M41.7451 80.054C41.5511 81.202 41.1611 82.288 40.5511 83.219C40.4071 83.461 40.2371 83.68 40.0511 83.887C39.8831 84.115 39.6701 84.293 39.4661 84.489C39.0771 84.872 38.6681 85.115 38.0871 85.372C36.9861 85.869 35.3511 86.247 34.0601 87.397C32.8361 88.514 32.1381 89.912 31.6841 91.317C30.8541 94.154 30.9651 97.079 31.6931 99.765C31.4001 97.01 31.8021 94.176 32.9421 91.814C33.5271 90.661 34.3381 89.615 35.3031 89.001C36.2301 88.404 37.4381 88.302 38.9501 87.935C42.2941 87.098 44.6361 84.148 45.6601 81.111C46.0251 80.014 46.2691 78.898 46.4081 77.772C44.7631 77.285 43.1861 76.641 41.6931 75.858C41.9311 77.246 41.9661 78.689 41.7451 80.054Z" fill="#492D21"/>
<path d="M92.208 71.984C91.055 71.399 90.009 70.588 89.395 69.623C88.798 68.696 88.696 67.488 88.329 65.976C87.492 62.632 84.542 60.29 81.505 59.266C80.838 59.045 80.164 58.874 79.486 58.736C79.126 60.226 78.64 61.667 78.038 63.046C78.85 63.015 79.663 63.053 80.448 63.181C81.596 63.375 82.682 63.765 83.613 64.374C83.855 64.518 84.074 64.688 84.281 64.874C84.509 65.041 84.687 65.255 84.882 65.459C85.265 65.848 85.508 66.257 85.765 66.838C86.262 67.939 86.64 69.574 87.79 70.865C88.907 72.089 90.305 72.787 91.71 73.241C94.547 74.071 97.472 73.96 100.158 73.232C97.404 73.526 94.57 73.124 92.208 71.984Z" fill="#492D21"/>
<path d="M24.8721 41.35C23.7241 41.156 22.6391 40.766 21.7071 40.156C21.4651 40.012 21.2461 39.842 21.0391 39.656C20.8111 39.488 20.6331 39.275 20.4381 39.071C20.0551 38.682 19.812 38.273 19.555 37.692C19.058 36.591 18.68 34.956 17.53 33.665C16.412 32.441 15.0151 31.743 13.6101 31.289C10.7731 30.459 7.84805 30.57 5.16205 31.298C7.91705 31.005 10.751 31.407 13.113 32.547C14.266 33.132 15.3121 33.943 15.9261 34.908C16.5231 35.835 16.625 37.043 16.992 38.555C17.829 41.899 20.7791 44.241 23.8161 45.265C25.3011 45.758 26.82 46.036 28.354 46.119C28.795 44.356 29.411 42.663 30.186 41.062C28.473 41.506 26.6081 41.633 24.8721 41.35Z" fill="#492D21"/>
<path d="M80.027 40.336C80.976 39.662 82.019 39.169 83.109 38.942C83.382 38.872 83.657 38.838 83.935 38.823C84.215 38.78 84.491 38.805 84.774 38.811C85.32 38.815 85.781 38.933 86.374 39.161C87.504 39.588 88.9271 40.477 90.6541 40.576C92.3091 40.651 93.791 40.156 95.106 39.485C97.699 38.066 99.689 35.919 101.073 33.505C99.332 35.66 97.044 37.38 94.568 38.244C93.339 38.646 92.026 38.812 90.909 38.564C89.832 38.331 88.906 37.548 87.576 36.739C84.62 34.967 80.878 35.396 78.006 36.819C77.269 37.188 76.568 37.606 75.902 38.068C76.739 39.339 77.47 40.686 78.08 42.098C78.671 41.44 79.325 40.841 80.027 40.336Z" fill="#492D21"/>
<path d="M25.293 64.196C24.344 64.87 23.301 65.363 22.211 65.59C21.938 65.659 21.663 65.694 21.385 65.709C21.105 65.752 20.829 65.727 20.546 65.721C20 65.717 19.539 65.599 18.946 65.371C17.816 64.944 16.393 64.055 14.666 63.956C13.011 63.881 11.529 64.376 10.214 65.047C7.62104 66.466 5.63104 68.613 4.24704 71.027C5.98804 68.872 8.27604 67.152 10.752 66.288C11.981 65.886 13.295 65.72 14.411 65.968C15.488 66.201 16.415 66.984 17.744 67.794C20.7 69.566 24.442 69.137 27.314 67.714C28.615 67.062 29.801 66.253 30.881 65.319C30.014 63.763 29.297 62.112 28.757 60.382C27.868 61.849 26.674 63.202 25.293 64.196Z" fill="#492D21"/>
<path d="M64.5911 79.633C65.2651 80.582 65.7581 81.625 65.9851 82.715C66.0551 82.988 66.089 83.263 66.104 83.541C66.147 83.821 66.1221 84.098 66.1161 84.38C66.1121 84.926 65.9941 85.387 65.7661 85.98C65.3391 87.11 64.4501 88.533 64.3511 90.26C64.2761 91.915 64.7711 93.398 65.4421 94.712C66.8611 97.305 69.0081 99.295 71.4221 100.679C69.2671 98.938 67.5471 96.65 66.6821 94.174C66.2801 92.945 66.1141 91.631 66.3621 90.515C66.5951 89.438 67.378 88.511 68.187 87.182C69.959 84.226 69.5301 80.484 68.1071 77.612C67.7291 76.859 67.3001 76.144 66.8251 75.464C65.4561 76.238 64.0111 76.891 62.5031 77.412C63.2881 78.073 64.0041 78.819 64.5911 79.633Z" fill="#492D21"/>
<path d="M40.73 24.899C40.055 23.95 39.563 22.907 39.336 21.817C39.266 21.544 39.232 21.269 39.217 20.991C39.174 20.711 39.199 20.435 39.205 20.152C39.209 19.606 39.327 19.145 39.555 18.552C39.982 17.422 40.871 15.999 40.97 14.272C41.045 12.616 40.55 11.134 39.879 9.82004C38.46 7.22704 36.313 5.23703 33.899 3.85303C36.054 5.59403 37.774 7.88203 38.639 10.358C39.041 11.587 39.207 12.901 38.959 14.017C38.726 15.094 37.943 16.021 37.133 17.349C35.361 20.305 35.79 24.047 37.213 26.919C37.856 28.201 38.65 29.37 39.567 30.439C40.991 29.513 42.509 28.722 44.105 28.082C42.809 27.228 41.624 26.141 40.73 24.899Z" fill="#492D21"/>
<path d="M71.7501 52.526C71.7361 50.189 71.2341 47.853 70.2301 45.761C69.2431 43.662 67.7941 41.823 66.1081 40.316C62.6921 37.332 58.3681 35.619 53.8981 35.485C49.4541 35.303 44.7811 36.845 41.4501 40.079C39.7991 41.687 38.4861 43.651 37.6511 45.797C36.7951 47.938 36.4701 50.258 36.5411 52.527C36.7481 57.085 38.7551 61.403 41.9321 64.492C45.1241 67.59 49.5041 69.291 53.8971 69.309C58.3091 69.36 62.6641 67.668 66.0841 64.713C67.7751 63.218 69.2261 61.381 70.2131 59.285C71.2171 57.195 71.7261 54.863 71.7501 52.526ZM71.9711 52.526C71.9771 57.238 70.3821 62.054 67.1141 65.743C65.4931 67.578 63.4641 69.105 61.1791 70.105C58.9041 71.132 56.3971 71.625 53.8971 71.669C51.3961 71.665 48.8791 71.185 46.5821 70.186C44.2831 69.194 42.1931 67.748 40.4601 65.964C38.7281 64.18 37.3551 62.051 36.4831 59.74C35.5981 57.432 35.2401 54.953 35.3291 52.526C35.5161 47.651 37.6071 43.008 40.9421 39.571C42.6111 37.853 44.5831 36.399 46.7881 35.363C48.9931 34.334 51.4271 33.734 53.8981 33.643C58.8491 33.477 63.8691 35.631 67.0911 39.334C70.3721 43.002 71.9511 47.819 71.9711 52.526Z" fill="#492D21"/>
</svg>
